<?xml version="1.0" encoding="utf-8"?><svg xmlns="http://www.w3.org/2000/svg" xmlns:xlink="http://www.w3.org/1999/xlink"><symbol viewBox="0 0 24 24" id="caret" xmlns="http://www.w3.org/2000/svg"><path d="M16.75 11.989a1.82 1.82 0 01-.57 1.36l-6.82 6.1a1.27 1.27 0 01-.65.31h-.19a1.3 1.3 0 01-.52-.1 1.23 1.23 0 01-.54-.47 1.2 1.2 0 01-.21-.68v-13a1.2 1.2 0 01.21-.69 1.23 1.23 0 011.25-.56c.24.039.464.143.65.3l6.76 6.09c.19.162.344.363.45.59.114.234.175.49.18.75"/></symbol><symbol viewBox="0 0 24 24" id="close" xmlns="http://www.w3.org/2000/svg"><path d="M6.4 19L5 17.6l5.6-5.6L5 6.4 6.4 5l5.6 5.6L17.6 5 19 6.4 13.4 12l5.6 5.6-1.4 1.4-5.6-5.6z"/></symbol><symbol viewBox="0 0 24 24" id="insta" xmlns="http://www.w3.org/2000/svg"><path d="M7.8 2h8.4C19.4 2 22 4.6 22 7.8v8.4a5.8 5.8 0 01-5.8 5.8H7.8C4.6 22 2 19.4 2 16.2V7.8A5.8 5.8 0 017.8 2m-.2 2A3.6 3.6 0 004 7.6v8.8C4 18.39 5.61 20 7.6 20h8.8a3.6 3.6 0 003.6-3.6V7.6C20 5.61 18.39 4 16.4 4zm9.65 1.5a1.25 1.25 0 011.25 1.25A1.25 1.25 0 0117.25 8 1.25 1.25 0 0116 6.75a1.25 1.25 0 011.25-1.25M12 7a5 5 0 015 5 5 5 0 01-5 5 5 5 0 01-5-5 5 5 0 015-5m0 2a3 3 0 00-3 3 3 3 0 003 3 3 3 0 003-3 3 3 0 00-3-3"/></symbol><symbol viewBox="0 0 24 24" id="tg" xmlns="http://www.w3.org/2000/svg"><path d="M22 12c0 5.523-4.477 10-10 10S2 17.523 2 12 6.477 2 12 2s10 4.477 10 10m-9.642-2.618q-1.458.607-5.831 2.513-.711.282-.744.552c-.038.304.343.424.862.587l.218.07c.51.166 1.198.36 1.555.368q.486.01 1.084-.4 4.086-2.76 4.218-2.789c.063-.014.149-.032.207.02.059.052.053.15.047.177-.038.161-1.534 1.552-2.308 2.271q-.344.324-.683.653c-.474.457-.83.8.02 1.36.861.568 1.73 1.134 2.57 1.733.414.296.786.56 1.246.519.267-.025.543-.276.683-1.026.332-1.77.983-5.608 1.133-7.19a1.8 1.8 0 00-.017-.393.42.42 0 00-.142-.27c-.12-.098-.305-.118-.387-.117-.376.007-.953.207-3.73 1.362"/></symbol><symbol viewBox="0 0 24 24" id="up" xmlns="http://www.w3.org/2000/svg"><path d="M4 15l8-8 8 8-2 2-6-6-6 6z" fill-rule="evenodd"/></symbol><symbol viewBox="0 0 24 24" id="vk" xmlns="http://www.w3.org/2000/svg"><path d="M21.504 18.381h-2.282c-.863 0-1.123-.699-2.67-2.247-1.352-1.303-1.923-1.465-2.265-1.465-.473 0-.602.13-.602.781v2.052c0 .555-.18.88-1.63.88a8.9 8.9 0 01-6.955-4.17 18.2 18.2 0 01-3.6-7.558c0-.342.13-.652.782-.652h2.28c.586 0 .797.261 1.027.864 1.107 3.258 2.996 6.092 3.763 6.092.294 0 .422-.13.422-.863V8.739c-.097-1.531-.91-1.66-.91-2.214a.563.563 0 01.585-.523h3.584c.49 0 .652.244.652.83v4.53c0 .489.21.651.358.651.294 0 .52-.162 1.059-.7a18.8 18.8 0 002.802-4.66.98.98 0 01.993-.65h2.281c.684 0 .829.342.684.83a28.5 28.5 0 01-3.062 5.262c-.246.375-.344.57 0 1.01.226.342 1.026 1.01 1.563 1.645.782.78 1.431 1.682 1.922 2.67.196.636-.131.961-.782.961"/></symbol><symbol viewBox="0 0 24 24" id="zoom" xmlns="http://www.w3.org/2000/svg"><path d="M4 20v-5h1v3.292l3.6-3.6.708.708-3.6 3.6H9v1zM15.4 9.308l-.708-.708 3.6-3.6H15V4h5v5h-1V5.708z"/></symbol></svg>